<svg width="50" height="46" viewBox="0 0 50 46" fill="none" xmlns="http://www.w3.org/2000/svg">
<g filter="url(#filter0_i_166_31)">
<path d="M24.5729 40H10.4167C9.3116 40 8.25179 39.5986 7.47039 38.8842C6.68899 38.1698 6.25 37.2008 6.25 36.1905V13.3333C6.25 12.323 6.68899 11.354 7.47039 10.6396C8.25179 9.92516 9.3116 9.5238 10.4167 9.5238H35.4167C36.5217 9.5238 37.5815 9.92516 38.3629 10.6396C39.1443 11.354 39.5833 12.323 39.5833 13.3333V20.9524" stroke="#242220" stroke-opacity="0.56" stroke-width="3" stroke-linecap="round" stroke-linejoin="round"/>
<path d="M37.5002 41.9047C42.1026 41.9047 45.8335 38.4935 45.8335 34.2856C45.8335 30.0777 42.1026 26.6665 37.5002 26.6665C32.8978 26.6665 29.1669 30.0777 29.1669 34.2856C29.1669 38.4935 32.8978 41.9047 37.5002 41.9047Z" stroke="#242220" stroke-opacity="0.56" stroke-width="3" stroke-linecap="round" stroke-linejoin="round"/>
<path d="M31.25 5.71432V13.3334" stroke="#242220" stroke-opacity="0.56" stroke-width="3" stroke-linecap="round" stroke-linejoin="round"/>
<path d="M14.5833 5.71432V13.3334" stroke="#242220" stroke-opacity="0.56" stroke-width="3" stroke-linecap="round" stroke-linejoin="round"/>
<path d="M6.25 20.9525H39.5833" stroke="#242220" stroke-opacity="0.56" stroke-width="3" stroke-linecap="round" stroke-linejoin="round"/>
<path d="M37.5 31.4209V34.2857L39.5833 36.1905" stroke="#242220" stroke-opacity="0.56" stroke-width="3" stroke-linecap="round" stroke-linejoin="round"/>
</g>
<defs>
<filter id="filter0_i_166_31" x="4.75" y="4.21432" width="42.5835" height="43.1903" filterUnits="userSpaceOnUse" color-interpolation-filters="sRGB">
<feFlood flood-opacity="0" result="BackgroundImageFix"/>
<feBlend mode="normal" in="SourceGraphic" in2="BackgroundImageFix" result="shape"/>
<feColorMatrix in="SourceAlpha" type="matrix" values="0 0 0 0 0 0 0 0 0 0 0 0 0 0 0 0 0 0 127 0" result="hardAlpha"/>
<feOffset dy="4"/>
<feGaussianBlur stdDeviation="2"/>
<feComposite in2="hardAlpha" operator="arithmetic" k2="-1" k3="1"/>
<feColorMatrix type="matrix" values="0 0 0 0 0 0 0 0 0 0 0 0 0 0 0 0 0 0 0.25 0"/>
<feBlend mode="normal" in2="shape" result="effect1_innerShadow_166_31"/>
</filter>
</defs>
</svg>
